<svg width="54" height="27" viewBox="0 0 54 27" fill="none" xmlns="http://www.w3.org/2000/svg">
<g id="Group 354">
<g id="favicon">
<path d="M28.7182 3.31735H0V5.43194C0 7.76765 1.89346 9.66111 4.22917 9.66111H28.7182V3.31735Z" fill="#CCD7FB"/>
<path d="M28.7182 10.7184H5.01182V12.8329C5.01182 15.1687 6.90528 17.0621 9.24099 17.0621H28.7182V10.7184Z" fill="#CCD7FB"/>
<path d="M28.7182 18.1194H10.8907V20.2339C10.8907 22.5697 12.7842 24.4631 15.1199 24.4631H28.7182V18.1194Z" fill="#CCD7FB"/>
<path d="M25.1499 3.31735H53.8682V5.43194C53.8682 7.76765 51.9747 9.66111 49.639 9.66111H25.1499V3.31735Z" fill="#CCD7FB"/>
<path d="M25.1499 10.7183H48.8563V12.8328C48.8563 15.1685 46.9628 17.062 44.6271 17.062H25.1499V10.7183Z" fill="#CCD7FB"/>
<path d="M25.1499 18.1193H42.9774V20.2338C42.9774 22.5696 41.0839 24.463 38.7482 24.463H25.1499V18.1193Z" fill="#CCD7FB"/>
<path d="M39.8894 13.7225C39.8894 20.9058 34.0662 26.729 26.883 26.729C19.6997 26.729 13.8765 20.9058 13.8765 13.7225C13.8765 6.53925 19.6997 0.716064 26.883 0.716064C34.0662 0.716064 39.8894 6.53925 39.8894 13.7225Z" fill="#0034EC"/>
<path d="M26.3722 21.2665V19.6359C25.7234 19.5676 25.1457 19.3883 24.6391 19.098C24.1326 18.802 23.7398 18.3865 23.4609 17.8515C23.1821 17.3165 23.0483 16.6563 23.0597 15.8708L23.0768 15.8281H24.6989C24.6989 16.4087 24.7985 16.8783 24.9977 17.2368C25.2026 17.5954 25.4786 17.8572 25.8258 18.0223C26.173 18.1816 26.5601 18.2613 26.9869 18.2613C27.4764 18.2613 27.8947 18.1816 28.2419 18.0223C28.5891 17.8629 28.8538 17.6352 29.0359 17.3393C29.2237 17.0433 29.3177 16.6904 29.3177 16.2806C29.3177 15.9391 29.238 15.6318 29.0786 15.3586C28.9249 15.0854 28.6745 14.8378 28.3273 14.6158C27.9858 14.3938 27.5362 14.1889 26.9784 14.0011C26.2157 13.7678 25.5754 13.486 25.0575 13.1559C24.5395 12.8258 24.1496 12.4274 23.8878 11.9607C23.626 11.4883 23.4951 10.9305 23.4951 10.2873C23.4951 9.34821 23.7655 8.58268 24.3062 7.99075C24.8469 7.39882 25.5896 7.04309 26.5344 6.92356V5.03678H27.8834V6.9321C28.8339 7.0687 29.5709 7.4785 30.0946 8.1615C30.6239 8.8388 30.8885 9.74947 30.8885 10.8935H29.2152C29.2152 10.1194 29.0359 9.49334 28.6773 9.01524C28.3245 8.53715 27.8293 8.2981 27.1918 8.2981C26.5202 8.2981 26.0165 8.47454 25.6807 8.82742C25.3449 9.17461 25.177 9.65271 25.177 10.2617C25.177 10.626 25.251 10.9447 25.399 11.2179C25.5469 11.4854 25.7945 11.7273 26.1417 11.9436C26.4889 12.1599 26.9642 12.3705 27.5675 12.5754C28.3415 12.8258 28.9818 13.1161 29.4884 13.4462C29.995 13.7706 30.3735 14.1605 30.6239 14.6158C30.8743 15.0712 30.9995 15.6204 30.9995 16.2636C30.9995 17.2425 30.7064 18.0223 30.1202 18.6028C29.5339 19.1834 28.7286 19.5277 27.7041 19.6359V21.2665H26.3722Z" fill="#F8FAFC"/>
</g>
</g>
</svg>
